<svg id="katman_1" data-name="katman 1" xmlns="http://www.w3.org/2000/svg" viewBox="0 0 655.36 147.36"><defs><style>.cls-1{fill:#e83c5f;}.cls-2{fill:#fff;}</style></defs><title>koyu-zemin</title><path class="cls-1" d="M0,80.52v65.77H23.48V80.52ZM131.53,14.75A65.85,65.85,0,0,0,65.76,80.52v65.77H89.25V80.52a42.34,42.34,0,0,1,42.28-42.28v108H155V14.75Z"/><path class="cls-1" d="M65.76,14.75V38.24A42.34,42.34,0,0,0,23.48,80.52H0A65.84,65.84,0,0,1,65.76,14.75Z"/><circle class="cls-1" cx="44.62" cy="90.22" r="11.74"/><path class="cls-2" d="M196.55,146.29h-5V85.2h2.23l26.87,39.52L247.22,85.2h2.32v61.09h-5V97.69l-23.31,34.55H220l-23.4-34.47Z"/><path class="cls-2" d="M299.21,110.58v-8.51H304v44.22h-4.8v-8.6a20.18,20.18,0,0,1-17.44,9.67,20.8,20.8,0,0,1-15.7-6.69,23.65,23.65,0,0,1-6.28-16.7,23,23,0,0,1,6.2-16.36A21,21,0,0,1,281.77,101a20.47,20.47,0,0,1,10.09,2.52A19.84,19.84,0,0,1,299.21,110.58ZM282,142.82a16.33,16.33,0,0,0,12.65-5.46,19.21,19.21,0,0,0,5-13.39,18.59,18.59,0,0,0-5-13.06A16.46,16.46,0,0,0,282,105.54a16.1,16.1,0,0,0-12.48,5.37,19,19,0,0,0-4.79,13.23,19,19,0,0,0,4.79,13.3A16.08,16.08,0,0,0,282,142.82Z"/><path class="cls-2" d="M320.79,146.29h-5V102.07h4.71v7.11q3.56-8.27,12.81-8.27a22.24,22.24,0,0,1,5.46.74l-.58,4.71a15.55,15.55,0,0,0-4.71-.74,11.26,11.26,0,0,0-9.34,4.26q-3.39,4.26-3.39,11.2Z"/><path class="cls-2" d="M380.05,146.29h-6.44l-19-23.06-5.2,4.63v18.43h-5V83.88h5v37.94l22.07-19.75h6.69l-20.08,18Z"/><path class="cls-2" d="M422.13,122.23c0,.61-.09,1.91-.25,3.89h-37.2a17.9,17.9,0,0,0,5.29,12q4.71,4.5,12.65,4.5a28.2,28.2,0,0,0,8.76-1.45,23,23,0,0,0,7.44-3.84l2.31,3.8a28.82,28.82,0,0,1-8.39,4.39,31.06,31.06,0,0,1-10.21,1.73q-11.4,0-17.19-6.82a24.48,24.48,0,0,1-5.78-16.41q0-10,6-16.53t16-6.53a20,20,0,0,1,14.72,5.79Q422.13,112.48,422.13,122.23Zm-20.59-16.69A16,16,0,0,0,390,109.92a18.06,18.06,0,0,0-5.33,11.65H417q-.09-7.26-4.34-11.65A14.81,14.81,0,0,0,401.54,105.54Z"/><path class="cls-2" d="M455.27,139.68l2.07,3.8a18.34,18.34,0,0,1-11.74,3.8q-6.53,0-9.92-4.05t-3.39-11.41V106.45h-7.85v-4.38h7.93V86.44h4.88v15.63h18.19v4.38H437.25V132q0,10.74,8.76,10.74A15.16,15.16,0,0,0,455.27,139.68Z"/><path class="cls-2" d="M202.17,75.84H189.94V14.75h40.75V26.32H202.17V40h25.05V51.53H202.17Z"/><path class="cls-2" d="M247.06,75.84H235.4V30.79h11.16v6A13.28,13.28,0,0,1,259,29.55a15.92,15.92,0,0,1,5.46,1l-1,11.16a18.4,18.4,0,0,0-5.37-.91A10,10,0,0,0,250,44.22q-2.93,3.44-2.93,10.21Z"/><path class="cls-2" d="M310.7,52.28a40.13,40.13,0,0,1-.41,5.12H276.48Q279,67,289.63,67a25.3,25.3,0,0,0,14.54-4.55l4.63,8.19a32.8,32.8,0,0,1-19.67,6.2q-11.82,0-18.19-6.86a23.69,23.69,0,0,1-6.28-16.7q0-10.33,6.53-17t16.95-6.69q9.83,0,16.2,6.12T310.7,52.28Zm-22.56-13a11.47,11.47,0,0,0-7.48,2.52,12.4,12.4,0,0,0-4.18,6.9h22.9a11.51,11.51,0,0,0-3.8-6.9A11.14,11.14,0,0,0,288.14,39.3Z"/><path class="cls-2" d="M360.79,52.28a38.38,38.38,0,0,1-.41,5.12H326.57Q329.06,67,339.72,67a25.3,25.3,0,0,0,14.54-4.55l4.63,8.19a32.8,32.8,0,0,1-19.67,6.2Q327.4,76.83,321,70a23.65,23.65,0,0,1-6.29-16.7q0-10.33,6.53-17t17-6.69q9.84,0,16.2,6.12T360.79,52.28Zm-22.56-13a11.47,11.47,0,0,0-7.48,2.52,12.4,12.4,0,0,0-4.18,6.9h22.9a11.51,11.51,0,0,0-3.8-6.9A11.14,11.14,0,0,0,338.23,39.3Z"/><path class="cls-2" d="M378.81,13V75.84H367.16V13Z"/><path class="cls-2" d="M422,36.16V30.79H433V75.84H422V70.63a18.75,18.75,0,0,1-14.38,6.28,20.9,20.9,0,0,1-16-6.78q-6.29-6.78-6.28-17t6.36-16.78a21.11,21.11,0,0,1,16-6.69A18.77,18.77,0,0,1,422,36.16Zm.17,17.11a13,13,0,0,0-3.64-9.17,12.65,12.65,0,0,0-18.1,0,13.09,13.09,0,0,0-3.48,9.17,13.07,13.07,0,0,0,3.56,9.26,12.58,12.58,0,0,0,18,0A13.11,13.11,0,0,0,422.13,53.27Z"/><path class="cls-2" d="M453.53,75.84H441.88V30.79h11.41v6.28a13.41,13.41,0,0,1,5.62-5.46,18.5,18.5,0,0,1,21,2.81Q485,39.31,485,48.31V75.84H473.37V51.45c0-3.52-.85-6.27-2.56-8.22a8.73,8.73,0,0,0-6.94-2.94,9.56,9.56,0,0,0-7.48,3.18,11.9,11.9,0,0,0-2.86,8.23Z"/><path class="cls-2" d="M514.87,76.83q-10.42,0-17.2-6.62T491,53.27q0-10.41,6.78-17,6.86-6.69,17.44-6.69a24.45,24.45,0,0,1,12.6,3.31,20.23,20.23,0,0,1,8.39,9.25l-9.34,5.13q-4.12-6.87-11.49-6.86a12.11,12.11,0,0,0-9.17,3.72,12.3,12.3,0,0,0-3.64,9.09,12.7,12.7,0,0,0,3.55,9.26,12.26,12.26,0,0,0,9,3.63,13.13,13.13,0,0,0,6.78-1.9,11.71,11.71,0,0,0,4.71-4.87L536,64.93a21.38,21.38,0,0,1-8.56,8.67A25,25,0,0,1,514.87,76.83Z"/><path class="cls-2" d="M585.13,52.28a38.61,38.61,0,0,1-.42,5.12h-33.8Q553.39,67,564.05,67a25.35,25.35,0,0,0,14.55-4.55l4.62,8.19a32.77,32.77,0,0,1-19.67,6.2q-11.82,0-18.18-6.86a23.65,23.65,0,0,1-6.29-16.7q0-10.33,6.54-17t16.94-6.69q9.84,0,16.2,6.12T585.13,52.28Zm-22.57-13a11.49,11.49,0,0,0-7.48,2.52,12.33,12.33,0,0,0-4.17,6.9H573.8a11.51,11.51,0,0,0-3.8-6.9A11.1,11.1,0,0,0,562.56,39.3Z"/><path class="cls-2" d="M603.14,75.84H591.49V30.79h11.16v6a13.28,13.28,0,0,1,12.4-7.27,15.83,15.83,0,0,1,5.45,1l-1,11.16a18.4,18.4,0,0,0-5.37-.91,10,10,0,0,0-8.06,3.43q-2.94,3.44-2.94,10.21Z"/><rect class="cls-2" x="630.3" y="13.25" width="16.81" height="4.94" transform="translate(187.18 467.73) rotate(-46.44)"/><rect class="cls-2" x="617.39" y="0.06" width="4.94" height="16.81" transform="translate(-0.02 15.49) rotate(-1.43)"/><rect class="cls-2" x="637.16" y="44.61" width="4.94" height="16.81" transform="translate(160.38 479.93) rotate(-46.43)"/><rect class="cls-2" x="638.49" y="31.7" width="16.81" height="4.94" transform="translate(-0.65 16.16) rotate(-1.43)"/></svg>